HIERARCHY
ROOT Pelvis
{
	OFFSET 0.000000 0.941512 0.000000
	CHANNELS 6 Xposition Yposition Zposition Zrotation Yrotation Xrotation 
	JOINT Pelvis_L_Hip
	{
		OFFSET 0.000000 0.000000 0.000000
		CHANNELS 3 Zrotation Yrotation Xrotation
		JOINT L_Hip
		{
			OFFSET 0.062321 -0.080322 -0.016990
			CHANNELS 3 Zrotation Yrotation Xrotation
			JOINT L_Knee
			{
				OFFSET 0.093051 -0.381305 -0.029784
				CHANNELS 3 Zrotation Yrotation Xrotation
				JOINT L_Ankle
				{
					OFFSET -0.010371 -0.431000 -0.033614
					CHANNELS 3 Zrotation Yrotation Xrotation
					End Site #name: L_Foot
					{
						OFFSET 0.069299 -0.038670 0.119418
					}
				}
			}
		}
	}
	JOINT Pelvis_R_Hip
	{
		OFFSET 0.000000 0.000000 0.000000
		CHANNELS 3 Zrotation Yrotation Xrotation
		JOINT R_Hip
		{
			OFFSET -0.055334 -0.094904 -0.002373
			CHANNELS 3 Zrotation Yrotation Xrotation
			JOINT R_Knee
			{
				OFFSET -0.064207 -0.384370 -0.019592
				CHANNELS 3 Zrotation Yrotation Xrotation
				JOINT R_Ankle
				{
					OFFSET 0.025418 -0.419734 -0.065953
					CHANNELS 3 Zrotation Yrotation Xrotation
					End Site #name: R_Foot
					{
						OFFSET -0.057233 -0.039888 0.132134
					}
				}
			}
		}
	}
	JOINT Pelvis_Spine1
	{
		OFFSET 0.000000 0.000000 0.000000
		CHANNELS 3 Zrotation Yrotation Xrotation
		JOINT Spine1
		{
			OFFSET -0.005562 0.124093 -0.043360
			CHANNELS 3 Zrotation Yrotation Xrotation
			JOINT Spine2
			{
				OFFSET 0.012244 0.139499 0.029894
				CHANNELS 3 Zrotation Yrotation Xrotation
				JOINT Spine3
				{
					OFFSET -0.002556 0.056561 0.009225
					CHANNELS 3 Zrotation Yrotation Xrotation
					JOINT Spine3_Neck
					{
						OFFSET 0.000000 0.000000 0.000000
						CHANNELS 3 Zrotation Yrotation Xrotation
						JOINT Neck
						{
							OFFSET -0.005205 0.217920 -0.024551
							CHANNELS 3 Zrotation Yrotation Xrotation
							End Site #name: Head
							{
								OFFSET 0.002365 0.091850 0.046637
							}
						}
					}
					JOINT Spine3_L_Collar
					{
						OFFSET 0.000000 0.000000 0.000000
						CHANNELS 3 Zrotation Yrotation Xrotation
						JOINT L_Collar
						{
							OFFSET 0.072225 0.116603 -0.009480
							CHANNELS 3 Zrotation Yrotation Xrotation
							JOINT L_Shoulder
							{
								OFFSET 0.115937 -0.058643 -0.021018
								CHANNELS 3 Zrotation Yrotation Xrotation
								JOINT L_Elbow
								{
									OFFSET 0.021994 -0.254722 -0.024492
									CHANNELS 3 Zrotation Yrotation Xrotation
									End Site #name: L_Wrist
									{
										OFFSET 0.048810 -0.240214 0.103329
									}
								}
							}
						}
					}
					JOINT Spine3_R_Collar
					{
						OFFSET 0.000000 0.000000 0.000000
						CHANNELS 3 Zrotation Yrotation Xrotation
						JOINT R_Collar
						{
							OFFSET -0.073372 0.120704 -0.024611
							CHANNELS 3 Zrotation Yrotation Xrotation
							JOINT R_Shoulder
							{
								OFFSET -0.108089 -0.054969 -0.020504
								CHANNELS 3 Zrotation Yrotation Xrotation
								JOINT R_Elbow
								{
									OFFSET -0.033684 -0.260739 0.009889
									CHANNELS 3 Zrotation Yrotation Xrotation
									End Site #name: R_Wrist
									{
										OFFSET -0.067980 -0.232763 0.118463
									}
								}
							}
						}
					}
				}
			}
		}
	}
}
MOTION
Frames: 17
Frame Time: 0.041667
0.075763 0.966063 0.001600 -11.761193 40.431460 1.990086 0.000000 0.000000 0.000000 4.712770 -2.430946 -9.445453 12.069558 -0.578667 -2.147638 -2.178000 11.907829 8.499997 0.000000 0.000000 0.000000 5.181252 2.553157 -14.817601 -9.753759 1.907907 3.007693 7.952266 22.439205 3.585885 0.000000 0.000000 0.000000 1.342116 1.321071 -14.121156 -21.501894 5.533360 17.957154 30.213085 26.500680 -15.058948 0.000000 0.000000 0.000000 -21.695899 6.382878 25.972551 0.000000 0.000000 0.000000 32.570651 23.409981 41.705384 -24.612674 -1.408028 -16.227039 14.432567 -9.101028 -103.247430 0.000000 0.000000 0.000000 -41.752344 6.083291 -10.844326 20.592912 -4.338915 21.422702 -24.883620 5.590184 -110.042171 
0.075830 0.966016 0.003299 -11.835564 39.495210 2.274019 0.000000 0.000000 0.000000 4.729594 -2.391254 -9.277869 12.190798 -0.584467 -2.213712 -1.925938 12.395742 8.576596 0.000000 0.000000 0.000000 5.459903 2.646654 -15.244397 -9.599634 1.874883 2.855968 8.359713 23.208641 3.923078 0.000000 0.000000 0.000000 1.440724 1.287518 -13.604506 -20.493995 5.451207 18.445417 28.532678 25.695809 -16.296311 0.000000 0.000000 0.000000 -21.301186 6.472011 26.152813 0.000000 0.000000 0.000000 32.959570 21.589360 40.039406 -21.495001 -1.351597 -15.910432 15.264111 -5.597507 -103.141556 0.000000 0.000000 0.000000 -42.010769 4.852900 -8.981153 15.673506 -3.515896 19.714623 -25.840225 2.145142 -109.201905 
0.075604 0.966929 0.005362 -11.722139 38.515898 2.599984 0.000000 0.000000 0.000000 4.567300 -2.296666 -8.909314 12.301938 -0.573218 -2.427146 -1.699535 12.956132 8.732158 0.000000 0.000000 0.000000 5.587551 2.699474 -15.447097 -9.440835 1.820429 2.495916 8.829920 24.008374 4.359468 0.000000 0.000000 0.000000 1.432370 1.222504 -12.615394 -20.424795 5.532230 18.676913 27.320118 25.192421 -17.934750 0.000000 0.000000 0.000000 -20.783364 6.503787 26.309656 0.000000 0.000000 0.000000 33.721026 20.188032 39.034731 -19.062568 -1.368439 -15.874023 16.040882 -2.305390 -102.571375 0.000000 0.000000 0.000000 -42.021895 3.604006 -7.014735 14.505666 -3.396999 19.554714 -26.784605 -2.957182 -108.370085 
0.077169 0.967884 0.008034 -11.394174 37.727308 2.543998 0.000000 0.000000 0.000000 4.455569 -2.054670 -7.800467 11.805926 -0.467683 -3.056190 -1.557816 13.407795 8.909318 0.000000 0.000000 0.000000 5.402316 2.590579 -14.683556 -9.255498 1.709497 1.636626 9.316367 24.961501 4.702871 0.000000 0.000000 0.000000 1.265678 1.166805 -11.754150 -20.185995 5.577006 19.063923 26.211916 24.564486 -18.464569 0.000000 0.000000 0.000000 -19.493326 5.941822 26.889248 0.000000 0.000000 0.000000 32.219384 20.059469 37.244648 -16.842622 -1.463562 -15.606513 16.068821 -2.106857 -101.961651 0.000000 0.000000 0.000000 -40.089354 1.998706 -4.829108 13.727407 -3.082871 18.111326 -27.248050 -6.193127 -108.087154 
0.077239 0.968167 0.009487 -11.549274 37.147935 2.644894 0.000000 0.000000 0.000000 4.565202 -2.021178 -7.600651 11.880634 -0.463598 -3.162762 -1.379299 13.737032 8.952410 0.000000 0.000000 0.000000 5.570902 2.640957 -14.893276 -9.034877 1.668970 1.553430 9.513935 25.484540 4.733645 0.000000 0.000000 0.000000 1.236436 1.119995 -11.123663 -19.764042 5.568286 19.502547 25.226555 24.015314 -19.511031 0.000000 0.000000 0.000000 -18.593690 5.651234 26.508219 0.000000 0.000000 0.000000 30.977008 19.476316 35.354627 -19.614034 -1.146462 -13.520106 15.380382 -5.024075 -101.854963 0.000000 0.000000 0.000000 -38.867284 1.468440 -3.868245 17.248006 -3.201944 17.754074 -26.920334 -6.588840 -107.881385 
0.077067 0.967968 0.010973 -11.782359 36.683532 2.784755 0.000000 0.000000 0.000000 4.705789 -1.994375 -7.415817 12.034739 -0.436313 -3.559579 -1.250414 14.143309 9.103311 0.000000 0.000000 0.000000 5.782380 2.712086 -15.229469 -8.863374 1.647677 1.593456 9.692390 26.037539 4.705685 0.000000 0.000000 0.000000 1.027852 1.082781 -10.399491 -19.255048 5.478718 19.441249 24.214499 23.556172 -20.402073 0.000000 0.000000 0.000000 -17.676533 5.274153 26.094877 0.000000 0.000000 0.000000 30.121696 20.068445 34.940667 -25.566939 -0.952024 -12.416565 14.590630 -8.449026 -102.095381 0.000000 0.000000 0.000000 -37.449119 0.804742 -2.922858 23.975423 -3.650224 17.892025 -25.558784 -2.311056 -108.595228 
0.076979 0.968261 0.012420 -12.042461 36.380591 3.059654 0.000000 0.000000 0.000000 4.777867 -2.022850 -7.533102 12.367676 -0.440071 -3.772725 -1.212423 14.533287 9.347933 0.000000 0.000000 0.000000 5.873464 2.773174 -15.559287 -8.537018 1.575243 1.362523 9.858707 26.333799 4.835994 0.000000 0.000000 0.000000 0.595129 1.086216 -9.847540 -18.735601 5.326069 18.885045 23.721990 23.365089 -20.507265 0.000000 0.000000 0.000000 -17.385925 5.174702 25.667288 0.000000 0.000000 0.000000 29.996375 21.209171 35.761169 -30.945683 -1.044687 -12.701195 13.715732 -11.607088 -101.753793 0.000000 0.000000 0.000000 -36.781876 0.517249 -2.569786 30.554692 -4.377148 18.628196 -24.048812 3.250805 -108.822076 
0.078127 0.968743 0.014075 -12.565069 36.179490 3.197838 0.000000 0.000000 0.000000 4.967925 -2.044334 -7.564145 12.856714 -0.433749 -4.190652 -1.245894 14.955123 9.703309 0.000000 0.000000 0.000000 6.180464 2.827861 -15.727314 -8.280082 1.493144 0.928798 10.178226 26.589283 5.307135 0.000000 0.000000 0.000000 0.324540 1.090218 -9.482145 -18.656358 5.277565 18.437400 23.934057 23.504997 -20.006739 0.000000 0.000000 0.000000 -17.661552 5.407847 24.689099 0.000000 0.000000 0.000000 30.518711 21.003167 36.047896 -30.545576 -1.083319 -13.047881 13.411429 -12.696069 -101.873504 0.000000 0.000000 0.000000 -37.319389 1.276957 -3.370619 30.821733 -4.814990 19.708632 -23.412935 7.335596 -109.333892 
0.079015 0.969434 0.014810 -13.221421 36.361106 3.197414 0.000000 0.000000 0.000000 5.623738 -2.198213 -8.055561 12.805754 -0.449107 -4.005895 -1.235177 15.184852 9.848975 0.000000 0.000000 0.000000 6.717971 2.905190 -15.971043 -8.329686 1.487689 0.799845 10.191347 26.470775 5.421217 0.000000 0.000000 0.000000 0.011129 1.071329 -8.772280 -18.949152 5.311823 18.181573 24.245406 23.703167 -19.601301 0.000000 0.000000 0.000000 -17.497993 5.375661 23.315461 0.000000 0.000000 0.000000 31.169512 20.132442 35.936788 -27.354768 -1.125582 -13.457298 14.317684 -9.547184 -102.272544 0.000000 0.000000 0.000000 -38.409396 2.003349 -4.230807 28.544654 -5.128105 21.179596 -23.919149 5.859851 -109.610398 
0.080145 0.969857 0.014689 -13.853709 36.825980 3.179347 0.000000 0.000000 0.000000 6.399471 -2.393458 -8.707851 12.530087 -0.453939 -3.757767 -1.391691 15.067619 9.940167 0.000000 0.000000 0.000000 7.125564 2.958321 -16.145202 -8.282286 1.460499 0.598407 10.034601 26.034364 5.420239 0.000000 0.000000 0.000000 -0.469328 1.059206 -7.910366 -19.072783 5.308591 18.088752 24.369046 23.673766 -19.388500 0.000000 0.000000 0.000000 -17.099297 5.197390 22.248142 0.000000 0.000000 0.000000 31.379651 19.806332 35.910778 -24.741541 -1.070531 -13.423547 14.934055 -7.028744 -102.034728 0.000000 0.000000 0.000000 -39.030344 1.818313 -4.159563 26.169687 -4.946181 21.388095 -24.348050 4.385774 -109.322826 
0.082661 0.969588 0.015626 -14.548227 37.176029 3.222247 0.000000 0.000000 0.000000 6.876074 -2.502767 -9.056210 12.769361 -0.448435 -3.990079 -1.570088 14.976415 10.082425 0.000000 0.000000 0.000000 7.466250 2.991507 -16.202287 -8.125358 1.389425 0.122012 9.959955 25.695668 5.518546 0.000000 0.000000 0.000000 -1.174910 1.102580 -7.347386 -18.638927 5.165954 17.792415 24.411619 23.536593 -18.959049 0.000000 0.000000 0.000000 -16.719360 5.010826 21.529169 0.000000 0.000000 0.000000 31.858912 19.518123 36.139135 -23.823463 -0.767691 -12.672074 14.880672 -7.166894 -102.317255 0.000000 0.000000 0.000000 -39.123365 1.589477 -4.036677 24.911924 -5.108864 22.145438 -24.474224 4.549297 -109.660684 
0.084403 0.969702 0.016011 -15.137029 37.298663 3.212553 0.000000 0.000000 0.000000 7.331056 -2.584829 -9.277689 12.843555 -0.437127 -4.154418 -1.669014 14.981180 10.209525 0.000000 0.000000 0.000000 7.802704 3.048475 -16.411164 -8.016327 1.360435 -0.009472 10.037174 25.611291 5.744463 0.000000 0.000000 0.000000 -2.298704 1.144790 -6.205388 -18.136763 4.981744 17.044676 24.609373 23.536767 -18.300744 0.000000 0.000000 0.000000 -16.199236 4.815597 20.262462 0.000000 0.000000 0.000000 32.303444 19.449297 36.516002 -23.666887 -0.645505 -12.526153 14.874764 -7.187845 -102.542437 0.000000 0.000000 0.000000 -39.141021 1.235356 -3.783328 24.395409 -5.151527 22.377756 -24.526093 4.234214 -109.393142 
0.085289 0.970562 0.015490 -15.857987 37.354204 3.281113 0.000000 0.000000 0.000000 8.077518 -2.766444 -9.908989 12.616587 -0.440988 -3.948515 -1.580663 15.240885 10.295786 0.000000 0.000000 0.000000 8.413367 3.179805 -16.973186 -8.154171 1.387700 0.063335 10.105367 25.566235 5.920203 0.000000 0.000000 0.000000 -3.516757 1.173794 -4.702038 -17.611851 4.792790 16.211676 24.742362 23.580774 -17.762560 0.000000 0.000000 0.000000 -15.484655 4.610949 18.330847 0.000000 0.000000 0.000000 31.799798 19.811084 36.428065 -23.864586 -0.600154 -12.288771 15.517524 -4.904037 -102.331633 0.000000 0.000000 0.000000 -38.640044 0.902561 -3.504257 24.031681 -5.023475 21.960332 -24.788063 2.436155 -109.050533 
0.085161 0.971727 0.014162 -16.840973 37.483464 3.442468 0.000000 0.000000 0.000000 9.019166 -3.013907 -10.831435 12.582152 -0.440559 -3.926208 -1.665793 15.600741 10.674711 0.000000 0.000000 0.000000 9.161454 3.359042 -17.770025 -8.143974 1.371776 -0.077231 10.111299 25.374397 6.075728 0.000000 0.000000 0.000000 -4.682863 1.172141 -2.839558 -17.179688 4.586164 15.006293 24.700866 23.594848 -17.263853 0.000000 0.000000 0.000000 -14.469540 4.310235 16.045020 0.000000 0.000000 0.000000 31.643886 20.306086 36.759318 -25.042975 -0.696668 -12.712679 15.894122 -3.683183 -102.182388 0.000000 0.000000 0.000000 -38.714851 1.038924 -3.716167 24.694686 -5.211236 22.302904 -24.791980 2.045292 -109.030684 
0.083842 0.972235 0.011638 -18.145065 37.640391 3.527167 0.000000 0.000000 0.000000 10.267550 -3.300931 -11.868754 12.668655 -0.429112 -4.099263 -1.846934 15.855799 11.110536 0.000000 0.000000 0.000000 10.119325 3.590238 -18.786577 -8.040457 1.338112 -0.260740 10.244273 25.294034 6.415492 0.000000 0.000000 0.000000 -6.122239 1.217870 -1.003149 -16.460406 4.352667 14.112690 24.714418 23.496624 -16.283917 0.000000 0.000000 0.000000 -13.388445 4.072229 13.226463 0.000000 0.000000 0.000000 31.163557 20.188729 36.250488 -27.274255 -0.735285 -12.879794 15.844435 -4.208451 -102.348774 0.000000 0.000000 0.000000 -39.139937 2.030211 -4.822914 25.121008 -5.416487 22.744022 -24.571028 3.390719 -109.418357 
0.080910 0.973148 0.008326 -19.504230 37.657193 3.558738 0.000000 0.000000 0.000000 11.612477 -3.604525 -13.030587 12.781455 -0.437232 -4.097719 -2.009940 16.410618 11.770069 0.000000 0.000000 0.000000 11.352519 3.891060 -20.079887 -8.154442 1.375253 -0.056421 10.378236 25.262598 6.712670 0.000000 0.000000 0.000000 -7.784759 1.219124 1.755122 -16.495852 4.291385 13.270419 24.765712 23.531145 -15.431363 0.000000 0.000000 0.000000 -12.408825 3.974765 9.930329 0.000000 0.000000 0.000000 30.056094 19.607242 34.723809 -29.969242 -0.842489 -12.867659 15.430968 -6.215778 -102.794256 0.000000 0.000000 0.000000 -38.892235 3.418120 -6.193865 26.788850 -5.808778 23.123458 -24.066735 5.977494 -110.086398 
0.074100 0.973072 0.004118 -21.614939 37.779553 3.726750 0.000000 0.000000 0.000000 14.179847 -4.187256 -15.490980 12.447948 -0.517422 -3.096902 -1.895266 17.048030 12.188892 0.000000 0.000000 0.000000 13.298127 4.426758 -22.423782 -8.281282 1.463301 0.627020 10.409900 25.098104 6.889021 0.000000 0.000000 0.000000 -10.054738 1.315349 4.785748 -16.218381 4.237754 13.045386 24.704471 23.577869 -15.525040 0.000000 0.000000 0.000000 -12.010077 4.286796 4.175456 0.000000 0.000000 0.000000 31.003852 17.982291 33.948020 -33.764408 -0.431825 -12.075413 13.740592 -12.578832 -102.890232 0.000000 0.000000 0.000000 -39.403045 5.360900 -8.023177 30.528483 -6.315354 23.337033 -23.428575 8.331540 -110.314532 
